<mxfile host="app.diagrams.net" modified="2023-05-01T21:16:13.689Z" agent="Mozilla/5.0 (Windows NT 10.0; Win64; x64; rv:109.0) Gecko/20100101 Firefox/112.0" etag="ngPZEAtGgb4GqKKhvjhY" version="21.2.3" type="github">
  <diagram name="Page-1" id="oQfySJcQFgN0MkKfvqcX">
    <mxGraphModel dx="1434" dy="685" grid="1" gridSize="10" guides="1" tooltips="1" connect="1" arrows="1" fold="1" page="1" pageScale="1" pageWidth="850" pageHeight="1100" math="0" shadow="0">
      <root>
        <mxCell id="0" />
        <mxCell id="1" parent="0" />
        <mxCell id="lvnxSdrfZNgW4HQ2GLTr-3" value="" style="edgeStyle=orthogonalEdgeStyle;rounded=0;orthogonalLoop=1;jettySize=auto;html=1;" edge="1" parent="1" source="lvnxSdrfZNgW4HQ2GLTr-1" target="lvnxSdrfZNgW4HQ2GLTr-2">
          <mxGeometry relative="1" as="geometry" />
        </mxCell>
        <mxCell id="lvnxSdrfZNgW4HQ2GLTr-1" value="&lt;div&gt;AREA&lt;/div&gt;&lt;div&gt;Top level integration name. Such as IIS Orchestrator&lt;/div&gt;" style="rounded=1;whiteSpace=wrap;html=1;" vertex="1" parent="1">
          <mxGeometry x="110" y="20" width="610" height="60" as="geometry" />
        </mxCell>
        <mxCell id="lvnxSdrfZNgW4HQ2GLTr-5" value="" style="edgeStyle=orthogonalEdgeStyle;rounded=0;orthogonalLoop=1;jettySize=auto;html=1;shape=link;" edge="1" parent="1" source="lvnxSdrfZNgW4HQ2GLTr-2">
          <mxGeometry relative="1" as="geometry">
            <mxPoint x="415" y="280" as="targetPoint" />
          </mxGeometry>
        </mxCell>
        <mxCell id="lvnxSdrfZNgW4HQ2GLTr-2" value="&lt;div&gt;EPIC&lt;/div&gt;&lt;div&gt;New major.minor version of the integration/area:&lt;/div&gt;&lt;div&gt;Title: IIS Orchestrator 2.2&lt;/div&gt;&lt;div&gt;Area: IIS Orchestrator&amp;nbsp;&amp;nbsp;&amp;nbsp;&amp;nbsp;&amp;nbsp;&amp;nbsp;&amp;nbsp; &lt;br&gt;&lt;/div&gt;" style="rounded=1;whiteSpace=wrap;html=1;" vertex="1" parent="1">
          <mxGeometry x="200" y="120" width="430" height="100" as="geometry" />
        </mxCell>
        <mxCell id="lvnxSdrfZNgW4HQ2GLTr-6" value="&lt;div&gt;Feature&lt;br&gt;&lt;/div&gt;&lt;div&gt;Title: Add Feature1&lt;/div&gt;&lt;div&gt;Area: IIS Orchestrator&lt;/div&gt;&lt;div&gt;&lt;br&gt;&lt;/div&gt;&lt;div&gt;This is a child of the major.minor Epic&lt;br&gt;&lt;/div&gt;" style="rounded=1;whiteSpace=wrap;html=1;" vertex="1" parent="1">
          <mxGeometry x="125" y="280" width="120" height="220" as="geometry" />
        </mxCell>
        <mxCell id="lvnxSdrfZNgW4HQ2GLTr-7" value="&lt;div&gt;Feature&lt;br&gt;&lt;/div&gt;&lt;div&gt;Title: Add Feature2&lt;/div&gt;&lt;div&gt;Area: IIS Orchestrator&lt;/div&gt;&lt;div&gt;&lt;br&gt;&lt;/div&gt;This is a child of the major.minor Epic" style="rounded=1;whiteSpace=wrap;html=1;" vertex="1" parent="1">
          <mxGeometry x="275" y="280" width="120" height="220" as="geometry" />
        </mxCell>
        <mxCell id="lvnxSdrfZNgW4HQ2GLTr-8" value="&lt;div&gt;Feature&lt;/div&gt;&lt;div&gt;Title: Add Feature1&lt;/div&gt;&lt;div&gt;Area: IIS Orchestrator&lt;/div&gt;&lt;div&gt;&lt;br&gt;&lt;/div&gt;This is a child of the major.minor Epic" style="rounded=1;whiteSpace=wrap;html=1;" vertex="1" parent="1">
          <mxGeometry x="435" y="280" width="120" height="220" as="geometry" />
        </mxCell>
        <mxCell id="lvnxSdrfZNgW4HQ2GLTr-11" value="" style="edgeStyle=orthogonalEdgeStyle;rounded=0;orthogonalLoop=1;jettySize=auto;html=1;" edge="1" parent="1" source="lvnxSdrfZNgW4HQ2GLTr-9" target="lvnxSdrfZNgW4HQ2GLTr-8">
          <mxGeometry relative="1" as="geometry" />
        </mxCell>
        <mxCell id="lvnxSdrfZNgW4HQ2GLTr-9" value="&lt;div&gt;Feature&lt;/div&gt;&lt;div&gt;Title: Add Feature4&lt;/div&gt;&lt;div&gt;Area: IIS Orchestrator&lt;/div&gt;&lt;div&gt;&lt;br&gt;&lt;/div&gt;This is a child of the major.minor Epic" style="rounded=1;whiteSpace=wrap;html=1;" vertex="1" parent="1">
          <mxGeometry x="605" y="280" width="120" height="220" as="geometry" />
        </mxCell>
      </root>
    </mxGraphModel>
  </diagram>
</mxfile>
